<svg width="200" height="200" viewBox="0 0 200 200" fill="none" xmlns="http://www.w3.org/2000/svg">
<rect width="200" height="200" rx="24" fill="#1B61BD"/>
<path d="M105.52 94.4803L72.6693 127.331M76.2146 103.49L60.1237 99.689C58.3534 99.2708 57.7308 97.073 59.0132 95.7859L71.8097 82.9895C72.6693 82.1299 73.8355 81.6373 75.0576 81.6281L89.485 81.5026M107.657 64.9936C118.396 72.3165 127.684 81.6048 135.007 92.3429M96.5058 123.786L100.307 139.877C100.725 141.647 102.923 142.27 104.21 140.987L117.006 128.191C117.866 127.331 118.358 126.165 118.368 124.943L118.493 110.515M137.762 84.7923L141.516 66.7267C142.539 61.8107 138.19 57.4616 133.274 58.4838L115.208 62.2382C109.888 63.3441 105.009 65.9786 101.171 69.8213L86.3486 84.639C80.6938 90.2938 77.0138 97.626 75.8521 105.539L75.801 105.878C75.0669 110.929 76.7582 116.026 80.3639 119.636C83.9696 123.242 89.0714 124.933 94.1222 124.195L94.4614 124.144C102.374 122.987 109.707 119.302 115.361 113.647L130.179 98.8294C134.022 94.9914 136.656 90.1126 137.762 84.7923Z" stroke="white" stroke-width="6" stroke-linecap="round" stroke-linejoin="round"/>
</svg>
